<?xml version="1.0" encoding="utf-8"?>
<!-- Generator: Adobe Illustrator 18.0.0, SVG Export Plug-In . SVG Version: 6.00 Build 0)  -->
<!DOCTYPE svg PUBLIC "-//W3C//DTD SVG 1.1//EN" "http://www.w3.org/Graphics/SVG/1.1/DTD/svg11.dtd">
<svg version="1.1"
	 id="svg3215" sodipodi:docname="blink1.png" inkscape:version="0.48.2 r9819" xmlns:svg="http://www.w3.org/2000/svg" xmlns:rdf="http://www.w3.org/1999/02/22-rdf-syntax-ns#" xmlns:cc="http://creativecommons.org/ns#" xmlns:dc="http://purl.org/dc/elements/1.1/" xmlns:inkscape="http://www.inkscape.org/namespaces/inkscape" xmlns:sodipodi="http://sodipodi.sourceforge.net/DTD/sodipodi-0.dtd"
	 xmlns="http://www.w3.org/2000/svg" xmlns:xlink="http://www.w3.org/1999/xlink" x="0px" y="0px" viewBox="13.1 71.3 207.9 141.6"
	 enable-background="new 13.1 71.3 207.9 141.6" xml:space="preserve">
<sodipodi:namedview  inkscape:current-layer="svg3215" inkscape:window-maximized="1" inkscape:window-y="0" inkscape:window-x="0" inkscape:window-height="776" inkscape:window-width="1440" inkscape:pageshadow="2" inkscape:pageopacity="0" objecttolerance="10" guidetolerance="10" gridtolerance="10" inkscape:zoom="2.3681944" showgrid="false" inkscape:cy="112.5" inkscape:cx="150" bordercolor="#666666" id="namedview3217" borderopacity="1" pagecolor="#ffffff">
	</sodipodi:namedview>
<g>
	<path fill="#010101" d="M13.2,126.3c0-11,0.1-22-0.1-33.1c-0.1-2.6,0.3-3.9,3-4.5c25.1-5.7,50.2-11.5,75.2-17.3
		c1.6-0.4,3.2-0.3,4.9,0.4c11.5,5.1,24,8.7,34.5,15.5c14.7,9.5,31.2,14.9,46.4,23c2,1.1,3,2.2,2.3,4.2c-3.3,10.7,1.8,16.1,11.2,20.2
		c9.4,4.1,18.1,9.9,27.1,14.9c2,1.1,3.4,2.2,3.3,4.9c-0.3,11.5-0.4,23.1-0.4,34.6c0,2.5-1.1,3.3-3.3,4
		c-21.1,6.4-42.2,12.8-63.3,19.4c-2.3,0.7-3.8,0.1-5.5-1.1c-5.3-3.7-10.8-7.3-16-11.1c-2.2-1.6-4-1.7-6.4-0.7
		c-6.8,2.7-13.7,5-20.4,7.8c-3.1,1.3-5.5,1-8.3-0.7c-7.3-4.3-14.8-8.3-22.2-12.4c-1.7-0.9-3.5-2.4-5.6-1.5c-4.7,2-8.2-0.5-11.9-2.8
		C44.5,182,31.2,174,17.9,166.2c-2.8-1.7-3.8-3.5-3.8-6.8c0.2-11,0.1-22.1,0.1-33.1C13.8,126.3,13.5,126.3,13.2,126.3z"/>
	<path fill="#4D4D4D" d="M167.7,111.2c-9,2.7-18.2,5.4-27.3,8.1c-11.6,3.4-23.3,6.7-34.9,10.1c-2.3,0.7-4.3,0.8-6.6-0.5
		c-5.3-3-10.9-5.7-16.4-8.4c-4.9-2.4-9.4-5.9-15.4-4.8c-0.6,0.1-1.3-0.2-1.9-0.5c-15.2-7.5-30.3-15-46.7-23.1
		c14.4-3.3,27.7-6.4,41-9.4c9.7-2.2,19.4-4.2,29.1-6.6c2.7-0.7,5.2-0.7,7.7,0.5c9.4,4.2,19.5,7.2,28.2,12.6
		c13.2,8.1,27.5,13.4,41.4,20C166.7,109.4,167.6,109.6,167.7,111.2z"/>
	<path fill="#F6911E" d="M63,185.8c-12.9-7.3-24.9-14.4-37.3-20.8c-5.3-2.7-7.1-5.9-6.9-11.9c0.5-14.1,0.2-28.3,0.2-42.8
		c4.4,2,9.4,4.3,14.3,6.6c9,4.3,18,8.6,27,12.8c1.9,0.9,2.8,1.8,2.8,4.1C63,150.7,63,167.7,63,185.8z"/>
	<path fill="#DADADA" d="M215.3,152.8c-16.9,5.3-32.9,9.3-48,15.4c-11.7,4.7-21.1,3.6-31.2-3.6c-7.8-5.6-16.6-9.8-24.9-14.6
		c-0.1-0.1-0.2-0.3-0.7-0.9c11.5-3.3,22.8-6.5,34.2-9.7c8.3-2.4,16.6-4.6,24.9-7.1c1.9-0.6,3.4-0.6,5.2,0.3
		C187.9,139.1,201,145.6,215.3,152.8z"/>
	<path fill="#F5911E" d="M97.6,175c0,7.2-0.1,14.3,0,21.5c0.1,3.4-0.2,5.2-4.1,2.8c-5.6-3.4-13.9-4.5-16.8-9.8
		c-2.7-5.1-0.8-12.7-0.9-19.2c-0.1-9.8-0.1-19.7-0.4-29.5c-0.1-3.3,0.6-3.9,3.5-2.2c5,2.9,10.1,5.8,15.3,8.4
		c2.4,1.2,3.3,2.8,3.2,5.5c-0.2,7.5-0.1,15-0.1,22.5C97.5,175,97.5,175,97.6,175z"/>
	<path fill="#727272" d="M112.2,155.7c11.6,6.7,23.2,13.4,34.8,20c1.5,0.9,1.9,2.1,1.9,3.7c0,7.2,0,14.3,0,22.7
		c-12.8-15.7-25-30.7-37.2-45.6C111.9,156.2,112,156,112.2,155.7z"/>
	<path fill="#818181" d="M18.2,96.7c15.1,7.5,29.7,14.8,44.2,22.1c2.4,1.2,4.8,2.2,7.6,1.6c2.1-0.4,3.9,0.6,5.7,1.5
		c7.2,3.8,14.3,7.9,21.7,11.3c3.5,1.6,4.4,3.7,3.1,7.6c-8.3-4.7-16.6-9.2-24.7-13.9c-2.2-1.3-4.3-2.3-7-1.4
		c-2.1,0.8-4.2,0.1-6.2-0.9c-13.7-6.7-27.5-13.5-41.3-19.9C17.5,103,17.6,100.6,18.2,96.7z"/>
	<path fill="#656565" d="M106.1,134.6c5.3-1.7,10.3-3.3,15.3-4.9c15.7-4.8,31.4-9.7,47.1-14.4c1.4-0.4,3.6-2.6,4.4,0.2
		c0.7,2.4,0.3,4.7-3,5.7c-12.2,3.7-24.4,7.6-36.6,11.4c-5.1,1.6-10.2,3-15.1,4.9C113.6,139.3,109.9,138.5,106.1,134.6z"/>
	<path fill="#AFAFAF" d="M215.2,171.8c0,1.5,0,3,0,4.5c0,10.4,0.1,10.1-10.1,7.3c-5.3-1.4-6.8-4-6.6-9.3
		c0.4-11.2,0.1-11.2,10.5-15.3c6.3-2.5,6.3-2.5,6.3,4.3C215.2,166.1,215.2,169,215.2,171.8z"/>
	<path fill="#F3901E" d="M102,152.5c5.8,5.7,9.4,10.9,8.7,18.9c-0.8,8.4-0.2,17-0.3,25.5c0,2.9-4.7,6.9-7.3,6.4
		c-1.8-0.3-1.1-1.8-1.1-2.8C102,184.7,102,169.1,102,152.5z"/>
	<path fill="#EE8E1D" d="M67.8,160.6c0-8,0-16,0-24c0-1.4-0.5-3.4,1.7-3.5c2.4-0.1,1.6,2.1,1.7,3.4c0.2,15.8,0.3,31.7,0.4,47.6
		c0,0.7,0,1.3,0,2c0,1.7-1,2.6-2.5,2.4c-1.8-0.1-1.2-1.7-1.2-2.8C67.8,177.3,67.8,168.9,67.8,160.6z"/>
	<path fill="#050505" d="M166.5,156.5c-10.1,4.6-15.7,3.7-25.2-3.9C150.7,146.6,158.5,151.5,166.5,156.5z"/>
	<path fill="#040404" d="M189.2,150.5c-9.8,6.1-17.5,1.6-25.1-3.6C173.6,140.4,181.2,145.7,189.2,150.5z"/>
</g>
</svg>
