<?xml version="1.0" encoding="utf-8"?>
<!-- Generator: Adobe Illustrator 18.0.0, SVG Export Plug-In . SVG Version: 6.00 Build 0)  -->
<!DOCTYPE svg PUBLIC "-//W3C//DTD SVG 1.1//EN" "http://www.w3.org/Graphics/SVG/1.1/DTD/svg11.dtd">
<svg version="1.1" id="Layer_1" xmlns="http://www.w3.org/2000/svg" xmlns:xlink="http://www.w3.org/1999/xlink" x="0px" y="0px"
	 viewBox="197.8 286.8 215.8 215.8" enable-background="new 197.8 286.8 215.8 215.8" xml:space="preserve">
<g>
	<path fill="#231F20" d="M270.7,293.8c0-3.8-3.1-6.9-7-6.9c-3.8,0-6.9,3.1-6.9,6.9v25.6h13.9L270.7,293.8L270.7,293.8z"/>
	<path fill="#231F20" d="M256.8,495.7c0,3.8,3.1,6.9,6.9,6.9c3.8,0,7-3.1,7-6.9v-25.6h-13.9L256.8,495.7L256.8,495.7z"/>
	<path fill="#231F20" d="M312.6,293.8c0-3.8-3.1-6.9-6.9-6.9s-6.9,3.1-6.9,6.9v25.6h13.9L312.6,293.8L312.6,293.8z"/>
	<path fill="#231F20" d="M298.8,495.7c0,3.8,3.1,6.9,6.9,6.9c3.8,0,6.9-3.1,6.9-6.9v-25.6h-13.9L298.8,495.7L298.8,495.7z"/>
	<path fill="#231F20" d="M354.6,293.8c0-3.8-3.1-6.9-6.9-6.9s-6.9,3.1-6.9,6.9v25.6h13.9L354.6,293.8L354.6,293.8z"/>
	<path fill="#231F20" d="M340.7,495.7c0,3.8,3.1,6.9,6.9,6.9c3.8,0,6.9-3.1,6.9-6.9v-25.6h-13.9L340.7,495.7L340.7,495.7z"/>
	<path fill="#231F20" d="M204.7,429.7c-3.8,0-6.9,3.1-6.9,6.9c0,3.8,3.1,6.9,6.9,6.9h25.6v-13.9L204.7,429.7L204.7,429.7z"/>
	<path fill="#231F20" d="M406.6,443.6c3.8,0,6.9-3.1,6.9-6.9c0-3.8-3.1-6.9-6.9-6.9h-25.5v13.9L406.6,443.6L406.6,443.6z"/>
	<path fill="#231F20" d="M204.7,387.8c-3.8,0-6.9,3.1-6.9,6.9c0,3.8,3.1,7,6.9,7h25.6v-13.9L204.7,387.8L204.7,387.8z"/>
	<path fill="#231F20" d="M406.6,401.7c3.8,0,6.9-3.1,6.9-7c0-3.8-3.1-6.9-6.9-6.9h-25.5v13.9L406.6,401.7L406.6,401.7z"/>
	<path fill="#231F20" d="M204.7,345.8c-3.8,0-6.9,3.1-6.9,6.9c0,3.8,3.1,6.9,6.9,6.9h25.6v-13.9L204.7,345.8L204.7,345.8z"/>
	<path fill="#231F20" d="M406.6,359.7c3.8,0,6.9-3.1,6.9-6.9c0-3.8-3.1-6.9-6.9-6.9h-25.5v13.9L406.6,359.7L406.6,359.7z"/>
	<path fill="#231F20" d="M344.9,448.5c8,0,14.6-6.5,14.6-14.6v-78.5c0-8.1-6.5-14.6-14.6-14.6h-78.5c-8,0-14.5,6.5-14.5,14.6V434
		c0,8.1,6.5,14.6,14.5,14.6H344.9z"/>
</g>
</svg>
