<?xml version="1.0" encoding="UTF-8" standalone="no"?>
<!-- Created with Inkscape (http://www.inkscape.org/) -->

<svg
   xmlns:dc="http://purl.org/dc/elements/1.1/"
   xmlns:cc="http://creativecommons.org/ns#"
   xmlns:rdf="http://www.w3.org/1999/02/22-rdf-syntax-ns#"
   xmlns:svg="http://www.w3.org/2000/svg"
   xmlns="http://www.w3.org/2000/svg"
   xmlns:xlink="http://www.w3.org/1999/xlink"
   version="1.1"
   width="507.14285"
   height="505.71429"
   id="svg2">
  <defs
     id="defs4">
    <linearGradient
       id="linearGradient4129">
      <stop
         id="stop4131"
         style="stop-color:#e6e6e6;stop-opacity:1"
         offset="0" />
      <stop
         id="stop4133"
         style="stop-color:#dbdbdd;stop-opacity:1"
         offset="1" />
    </linearGradient>
  </defs>
  <metadata
     id="metadata7">
    <rdf:RDF>
      <cc:Work
         rdf:about="">
        <dc:format>image/svg+xml</dc:format>
        <dc:type
           rdf:resource="http://purl.org/dc/dcmitype/StillImage" />
        <dc:title></dc:title>
      </cc:Work>
    </rdf:RDF>
  </metadata>
  <g
     transform="translate(-117.14286,-146.6479)"
     id="layer1"
     style="display:none">
  </g>
  <g
     transform="translate(-117.14286,-146.6479)"
     id="layer2"
     style="display:inline">
    <path
       d="m 371.42857,146.6479 c 228.05853,0 252.85714,32.81748 252.85714,238.57143 0,261.70022 -33.14668,267.14285 -247.14285,267.14285 -238.52012,0 -260,-27.38453 -260,-255.71428 0,-212.15435 24.44116,-250 254.28571,-250 z"
       id="path3262"
       style="fill:#e6e6e6;fill-opacity:1;stroke:none" />
    <path
       d="m 421.97881,246.82247 c -3.08899,0 -5.60545,2.56797 -5.60545,5.70961 0,3.13352 2.51646,5.69066 5.60545,5.69066 3.08898,0 5.60014,-2.55714 5.60014,-5.69066 0,-3.14164 -2.51116,-5.70961 -5.60014,-5.70961 m 0,0 c -3.08899,0 -5.60545,2.56797 -5.60545,5.70961 0,3.13352 2.51646,5.69066 5.60545,5.69066 3.08898,0 5.60014,-2.55714 5.60014,-5.69066 0,-3.14164 -2.51116,-5.70961 -5.60014,-5.70961 m -4.8545,53.19406 9.71698,0 0,-37.14221 -9.71698,0 z m -4.34057,-37.1368 -11.17097,0 -13.06162,16.42256 0,-30.60187 -9.72234,0 0,51.31611 9.72234,0 0,-17.78096 13.06694,17.78096 11.80743,0 -15.0668,-20.0161 z m -50.31062,37.1368 9.71701,0 0,-51.32694 -9.71701,0 z M 347.5421,277.9466 c -0.67636,-4.55957 -3.57363,-8.19911 -8.89947,-8.19911 -5.22465,0 -8.28701,3.61789 -8.96874,8.19911 z m 9.83685,4.09684 c 0,0.84968 -0.0347,2.07819 -0.11439,2.95493 l -27.63583,0 c 0.48998,4.69216 4.67878,7.75803 9.89278,7.75803 3.84524,0 7.01947,-1.15545 9.69036,-3.52589 l 4.93973,6.84883 c -2.84932,2.30819 -7.63725,4.94652 -14.62476,4.94652 -11.77813,0 -19.68435,-7.79592 -19.68435,-19.40184 0,-11.4111 8.23644,-20.00798 19.16239,-20.00798 11.5065,0 18.3742,7.63896 18.3742,20.4274 m -51.04027,-0.71979 c 0,-6.03161 -4.16215,-10.58577 -9.67174,-10.58577 -5.51491,0 -9.68238,4.55416 -9.68238,10.58577 0,6.02892 4.16747,10.58307 9.68238,10.58307 5.50959,0 9.67174,-4.55415 9.67174,-10.58307 m 9.71701,0 c 0,11.61134 -7.97279,19.70221 -19.37809,19.70221 -11.4266,0 -19.40472,-8.17205 -19.40472,-19.8808 l 0,-32.44464 9.71168,0 0,17.99744 c 2.37799,-2.61939 6.20728,-5.08182 11.53845,-5.08182 10.48925,0 17.53268,7.92309 17.53268,19.70761 m 150.71612,-1.79406 0,20.44094 -9.72231,0 -0.004,-20.44905 c 0,-5.53373 -2.12502,-8.84584 -7.42959,-8.84584 -5.30454,0 -7.44553,3.31211 -7.44553,8.84584 l 0,20.44905 -9.71169,0 0,-20.44094 c 0,-11.44627 5.73065,-17.97308 17.15722,-17.97308 11.42128,0 17.15722,6.43481 17.15722,17.97308"
       id="path6334"
       style="fill:#b9bdbe;fill-opacity:1;fill-rule:nonzero;stroke:none" />
    <rect
       width="22.98097"
       height="85.862968"
       ry="3.0304577"
       x="298.50009"
       y="375.0549"
       id="rect3349"
       style="fill:#000000;fill-opacity:1;stroke:none" />
    <rect
       width="21.465729"
       height="68.437843"
       ry="3.0304577"
       x="422.12128"
       y="383.0549"
       id="rect4119"
       style="fill:#000000;fill-opacity:1;stroke:none" />
    <rect
       width="46.214478"
       height="1.2626907"
       ry="0.63134533"
       x="383.35291"
       y="557.63995"
       id="rect4164"
       style="fill:none;stroke:none" />
    <g
       id="g4185">
      <rect
         width="51.012726"
         height="32.072327"
         ry="3.0304577"
         x="346.48233"
         y="526.32526"
         id="rect4177"
         style="fill:#000000;fill-opacity:1;stroke:none" />
      <path
         d="m 399.64363,529.2043 a 25.127544,25.127544 0 1 1 -0.0684,-0.1947"
         transform="translate(-3.9143219,-5.075613)"
         id="path4183"
         style="fill:#000000;fill-opacity:1;stroke:none" />
    </g>
  </g>
  <g
     transform="translate(-117.14286,-146.6479)"
     id="layer3"
     style="display:inline" />
</svg>
